# xmcd CD database file generated by Grip 3.1.2
# 
# Track frame offsets:
#       150
#       20012
#       32002
#       47402
#       73750
#       91822
#       111082
#       129997
#       157230
#       173145
#       182355
#       203592
# 
# Disc length: 2938 seconds
# 
# Revision: 1
# Processed by: cddbd v1.4PL0 Copyright (c) Steve Scherf et al.
# Submitted via: Grip 3.1.2
# 
DISCID=960b780c
DTITLE=James Blood Ulmer - No Escape From The Blues - The Electric Lady Sessi
DTITLE=ons
DYEAR=2003
DGENRE=Blues
TTITLE0=Goin' To New York
TTITLE1=The Hustle Is On
TTITLE2=Who's Been Talkin'
TTITLE3=Ghetto Child
TTITLE4=Are You Glad To Be In America
TTITLE5=You Know, I Know
TTITLE6=Come On (Let The Good Times Roll)
TTITLE7=Bright Lights, Big City
TTITLE8=No Escape From The Blues
TTITLE9=Satisfy (Story Of My Life)
TTITLE10=Trouble In Mind
TTITLE11=The Blues Had A Baby And Called It Rock N Roll
EXTD=
EXTT0=
EXTT1=
EXTT2=
EXTT3=
EXTT4=
EXTT5=
EXTT6=
EXTT7=
EXTT8=
EXTT9=
EXTT10=
EXTT11=
PLAYORDER=
